<?xml version="1.0" ?><svg data-name="Слой 1" id="Слой_1" viewBox="0 0 32 32" fill="#cc0000" xmlns="http://www.w3.org/2000/svg"><path d="M25.9311,6.1892h-5.065A3.0766,3.0766,0,0,0,17.8334,3.58H14.2953a3.0766,3.0766,0,0,0-3.0327,2.6094H6.0688a1.5115,1.5115,0,1,0,0,3.023H25.9311a1.5115,1.5115,0,1,0,0-3.023ZM14.2953,4.52h3.5381A2.143,2.143,0,0,1,19.92,6.1892H12.2084A2.1432,2.1432,0,0,1,14.2953,4.52ZM25.9311,8.2717H6.0688a.5711.5711,0,0,1,0-1.1421H25.9311a.5711.5711,0,1,1,0,1.1421Z"/><path d="M25.1283,9.9055a.471.471,0,0,0-.4707.4707v16.398a.7061.7061,0,0,1-.705.7055H8.0239a.7061.7061,0,0,1-.7051-.7055V10.3762a.4707.4707,0,1,0-.9414,0v16.398A1.6484,1.6484,0,0,0,8.0239,28.42H23.9526a1.6484,1.6484,0,0,0,1.6464-1.646V10.3762A.471.471,0,0,0,25.1283,9.9055Z"/><path d="M12.769,23.6326V12.9739a1.5728,1.5728,0,0,0-3.1455,0V23.6326a1.5728,1.5728,0,0,0,3.1455,0Zm-2.2041,0V12.9739a.6314.6314,0,1,1,1.2627,0V23.6326a.6314.6314,0,1,1-1.2627,0Z"/><path d="M17.5727,23.6326V12.9739a1.5728,1.5728,0,0,0-3.1455,0V23.6326a1.5728,1.5728,0,0,0,3.1455,0Zm-2.2041,0V12.9739a.6314.6314,0,1,1,1.2627,0V23.6326a.6314.6314,0,1,1-1.2627,0Z"/><path d="M22.3764,23.6326V12.9739a1.5728,1.5728,0,0,0-3.1455,0V23.6326a1.5728,1.5728,0,0,0,3.1455,0Zm-2.2041,0V12.9739a.6314.6314,0,1,1,1.2627,0V23.6326a.6314.6314,0,1,1-1.2627,0Z"/></svg>